<?xml version="1.0" encoding="utf-8"?>
<!-- Generator: Adobe Illustrator 15.0.0, SVG Export Plug-In . SVG Version: 6.00 Build 0)  -->
<!DOCTYPE svg PUBLIC "-//W3C//DTD SVG 1.1//EN" "http://www.w3.org/Graphics/SVG/1.1/DTD/svg11.dtd">
<svg version="1.1" id="Layer_1" xmlns="http://www.w3.org/2000/svg" xmlns:xlink="http://www.w3.org/1999/xlink" x="0px" y="0px"
	 width="612px" height="792px" viewBox="0 0 612 792" enable-background="new 0 0 612 792" xml:space="preserve">
<g>
	<circle cx="320.968" cy="366.744" r="2.25"/>
	<circle cx="300.718" cy="363.494" r="2.25"/>
	<path d="M325.821,393.227c-1.378-5.45-2.939-11.627-1.432-14.099c1.024-1.68,0.267-2.791-0.107-3.19
		c-0.561-0.599-1.657-1.068-2.896-0.421c-1.003,0.523-3.105,2.562-5.143,5.5c-0.238-1.066-0.458-2.268-0.614-3.438l-0.355-2.658
		l-2.556,0.812c-2.315,0.735-3.195,3.11-3.972,5.206c-0.039,0.106-0.082,0.222-0.126,0.337c-0.581-1.159-1.189-2.346-1.832-3.57
		l-2.466-4.699l-1.663,5.04c-0.269,0.813-0.562,1.652-0.864,2.5c-0.745-1.992-1.651-4.124-3.824-4.813l-2.746-0.871l-0.181,2.875
		c-0.06,0.957-0.166,1.934-0.295,2.843c-1.939-2.705-3.885-4.566-4.837-5.063c-1.241-0.646-2.336-0.177-2.896,0.422
		c-0.373,0.399-1.132,1.511-0.106,3.19c1.508,2.471-0.054,8.648-1.432,14.099c-2.057,8.133-4.183,16.542,0.274,21.313
		c1.986,2.127,4.983,3.182,9.088,3.182c1.625,0,3.435-0.174,5.414-0.504c1.62,0.576,3.521,0.883,5.729,0.883
		c1.976,0,3.688-0.303,5.16-0.867c1.939,0.318,3.715,0.488,5.313,0.488c4.104,0,7.102-1.055,9.088-3.182
		C330.003,409.77,327.877,401.359,325.821,393.227z M312.373,384.033c0.257,0.828,0.556,1.597,0.898,2.241
		c-0.387,0.871-0.736,1.773-1.034,2.701c-0.369-0.848-0.756-1.715-1.167-2.606C311.612,385.667,312.025,384.859,312.373,384.033z
		 M298.546,384.552c0.299,0.647,0.648,1.269,1.079,1.826c-0.021,0.056-0.042,0.112-0.063,0.167c-0.234,0.616-0.468,1.229-0.699,1.84
		c-0.271-0.779-0.574-1.542-0.906-2.278C298.179,385.641,298.377,385.122,298.546,384.552z M289.041,411.468
		c-2.78-2.977-0.878-10.501,0.8-17.139c0.883-3.491,1.74-6.884,2.052-9.918c2.312,3.59,4.49,8.615,3.469,13.414l0.193,0.041
		c-1.818,6.104-2.491,11.49-0.272,15.344C292.305,413.278,290.199,412.707,289.041,411.468z M299.352,411.281
		c-2.828-4.104,1.021-14.215,4.416-23.135c0.466-1.225,0.939-2.468,1.399-3.706c8.384,17.06,8.306,23.994,6.615,26.79
		c-0.354,0.586-1.432,2.369-5.798,2.369C302.644,413.6,300.412,412.819,299.352,411.281z M322.258,411.468
		c-1.185,1.267-3.358,1.836-6.442,1.735c1.896-3.452,1.865-8.402-0.221-15.307l0.343-0.072c-1.021-4.797,1.154-9.82,3.467-13.41
		c0.313,3.031,1.171,6.424,2.054,9.915C323.137,400.968,325.038,408.491,322.258,411.468z"/>
	<circle cx="290.718" cy="366.744" r="2.25"/>
	<circle cx="311.968" cy="363.494" r="2.25"/>
	<circle cx="289.835" cy="425.425" r="2.25"/>
	<circle cx="310.085" cy="428.675" r="2.25"/>
	<circle cx="320.085" cy="425.425" r="2.25"/>
	<circle cx="298.835" cy="428.675" r="2.25"/>
</g>
</svg>
